# xmcd
#
# Track frame offsets: 
#        150
#        11800
#        22043
#        35924
#        45198
#        55055
#        64688
#        76332
#        88260
#        101286
#        112980
#        125772
#        137079
#        148669
#        161717
#        172340
#        184021
#        194390
#        205474
#        216830
#        228332
#        242802
#        253934
#        263994
#        274244
#
# Disc length: 3779 seconds
#
# Revision: 0
# Processed by: cddbd v1.5.2PL0 Copyright (c) Steve Scherf et al.
# Submitted via: ExactAudioCopy v1.1
#
DISCID=7b0ec119
DTITLE=Patsy Cline - Walking After Midnight
DYEAR=2012
DGENRE=Country
TTITLE0=Walking After Midnight
TTITLE1=Three Cigarettes In An Ashtray
TTITLE2=A Church, A Courtroom And Then Goodbye
TTITLE3=I Love You, Honey
TTITLE4=I'm Blue Again
TTITLE5=I'm Moving Along
TTITLE6=I've Loved And Lost Again
TTITLE7=If I Could Only Stay Asleep
TTITLE8=If I Could See The World (Through The Eyes Of A Child)
TTITLE9=In Care Of The Blues
TTITLE10=Just A Closer Walk With Thee
TTITLE11=Just Out Of Reach
TTITLE12=Let The Teardrops Fall
TTITLE13=Life's Railway To Heaven
TTITLE14=Lovesick Blues
TTITLE15=Never No More
TTITLE16=Pick Me Up On Your Way Down
TTITLE17=Stop The World (And Let Me Off)
TTITLE18=The Wonderful Someone
TTITLE19=The Heart You Break May Be Your Own
TTITLE20=Then You'll Know
TTITLE21=There He Goes
TTITLE22=Foolin' Around
TTITLE23=Too Many Secrets
TTITLE24=Try Again
EXTD=
EXTT0=
EXTT1=
EXTT2=
EXTT3=
EXTT4=
EXTT5=
EXTT6=
EXTT7=
EXTT8=
EXTT9=
EXTT10=
EXTT11=
EXTT12=
EXTT13=
EXTT14=
EXTT15=
EXTT16=
EXTT17=
EXTT18=
EXTT19=
EXTT20=
EXTT21=
EXTT22=
EXTT23=
EXTT24=
PLAYORDER=
